<?xml version="1.0" encoding="utf-8"?>
<!-- Generator: Adobe Illustrator 16.0.4, SVG Export Plug-In . SVG Version: 6.00 Build 0)  -->
<!DOCTYPE svg PUBLIC "-//W3C//DTD SVG 1.1//EN" "http://www.w3.org/Graphics/SVG/1.1/DTD/svg11.dtd">
<svg version="1.1" id="Ebene_1" xmlns="http://www.w3.org/2000/svg" xmlns:xlink="http://www.w3.org/1999/xlink" x="0px" y="0px"
	 width="101.667px" height="101.663px" viewBox="0 0 101.667 101.663" enable-background="new 0 0 101.667 101.663"
	 xml:space="preserve">
<g>
	<path d="M85.667,61.329v20.334c0,2.206-1.794,4-4,4H20c-2.206,0-4-1.794-4-4V20c0-2.206,1.794-4,4-4h20.667l16-16H20
		C8.972,0,0,8.972,0,20v61.663c0,11.028,8.972,20,20,20h61.667c11.028,0,20-8.972,20-20V45.332L85.667,61.329z"/>
	<path d="M101.667,0H64l13.198,13.198L45.469,44.928c-3.112,3.109-3.113,8.155,0,11.267c3.111,3.113,8.158,3.113,11.27,0
		l31.729-31.727l13.198,13.198V0z"/>
</g>
</svg>
